<svg width="63" height="11" viewBox="0 0 63 11" fill="none" xmlns="http://www.w3.org/2000/svg">
<path d="M3.49658 8.63037L5.73096 2.17969H6.85889L3.9585 10H3.04541L0.150391 2.17969H1.27295L3.49658 8.63037ZM13.417 2.17969V7.49707C13.4134 8.2347 13.1807 8.83805 12.7188 9.30713C12.2604 9.7762 11.6374 10.0394 10.8496 10.0967L10.5757 10.1074C9.71989 10.1074 9.03776 9.87646 8.5293 9.41455C8.02083 8.95264 7.76302 8.31706 7.75586 7.50781V2.17969H8.77637V7.47559C8.77637 8.04134 8.93213 8.48177 9.24365 8.79688C9.55518 9.1084 9.99919 9.26416 10.5757 9.26416C11.1593 9.26416 11.6051 9.1084 11.9131 8.79688C12.2246 8.48535 12.3804 8.04671 12.3804 7.48096V2.17969H13.417ZM19.4648 6.38525H16.0757V9.15674H20.0127V10H15.0444V2.17969H19.959V3.02832H16.0757V5.54199H19.4648V6.38525ZM26.1626 10H21.0386V9.28564L23.7456 6.27783C24.1466 5.82308 24.4224 5.45426 24.5728 5.17139C24.7267 4.88493 24.8037 4.58952 24.8037 4.28516C24.8037 3.87695 24.6802 3.54215 24.4331 3.28076C24.186 3.01937 23.8566 2.88867 23.4448 2.88867C22.9507 2.88867 22.5658 3.03011 22.29 3.31299C22.0179 3.59229 21.8818 3.98258 21.8818 4.48389H20.8882C20.8882 3.76416 21.1191 3.18229 21.5811 2.73828C22.0465 2.29427 22.6678 2.07227 23.4448 2.07227C24.1717 2.07227 24.7464 2.26383 25.1689 2.64697C25.5915 3.02653 25.8027 3.5332 25.8027 4.16699C25.8027 4.93685 25.3122 5.85352 24.3311 6.91699L22.2363 9.18896H26.1626V10ZM34.9551 7.15869C34.9551 8.04313 34.7528 8.7557 34.3481 9.29639C33.9435 9.83708 33.3957 10.1074 32.7046 10.1074C31.9992 10.1074 31.4442 9.88363 31.0396 9.43604V12.2344H30.0459V4.18848H30.9536L31.002 4.83301C31.4066 4.33171 31.9688 4.08105 32.6885 4.08105C33.3867 4.08105 33.9382 4.34424 34.3428 4.87061C34.751 5.39697 34.9551 6.12923 34.9551 7.06738V7.15869ZM33.9614 7.0459C33.9614 6.39062 33.8218 5.87321 33.5425 5.49365C33.2632 5.1141 32.88 4.92432 32.3931 4.92432C31.7915 4.92432 31.3403 5.19108 31.0396 5.72461V8.50146C31.3368 9.03141 31.7915 9.29639 32.4038 9.29639C32.88 9.29639 33.2578 9.1084 33.5371 8.73242C33.82 8.35286 33.9614 7.79069 33.9614 7.0459ZM39.0317 5.08008C38.8813 5.05501 38.7184 5.04248 38.543 5.04248C37.8913 5.04248 37.4491 5.31999 37.2163 5.875V10H36.2227V4.18848H37.1895L37.2056 4.85986C37.5314 4.34066 37.9933 4.08105 38.5913 4.08105C38.7847 4.08105 38.9315 4.10612 39.0317 4.15625V5.08008ZM39.5796 7.04053C39.5796 6.47119 39.6906 5.95915 39.9126 5.50439C40.1382 5.04964 40.4497 4.69873 40.8472 4.45166C41.2482 4.20459 41.7048 4.08105 42.2168 4.08105C43.0081 4.08105 43.6473 4.35498 44.1343 4.90283C44.6248 5.45068 44.8701 6.17936 44.8701 7.08887V7.15869C44.8701 7.72445 44.7609 8.23291 44.5425 8.68408C44.3276 9.13167 44.0179 9.48079 43.6133 9.73145C43.2122 9.9821 42.7503 10.1074 42.2275 10.1074C41.4398 10.1074 40.8006 9.8335 40.3101 9.28564C39.8231 8.73779 39.5796 8.0127 39.5796 7.11035V7.04053ZM40.5786 7.15869C40.5786 7.80322 40.7272 8.32064 41.0244 8.71094C41.3252 9.10124 41.7262 9.29639 42.2275 9.29639C42.7324 9.29639 43.1335 9.09945 43.4307 8.70557C43.7279 8.30811 43.8765 7.75309 43.8765 7.04053C43.8765 6.40316 43.7243 5.88753 43.4199 5.49365C43.1191 5.09619 42.7181 4.89746 42.2168 4.89746C41.7262 4.89746 41.3306 5.09261 41.0298 5.48291C40.729 5.87321 40.5786 6.4318 40.5786 7.15869ZM47.1421 4.18848V10.6714C47.1421 11.7886 46.6354 12.3472 45.6221 12.3472C45.4036 12.3472 45.2013 12.3149 45.0151 12.2505V11.4556C45.1297 11.4842 45.2801 11.4985 45.4663 11.4985C45.6883 11.4985 45.8566 11.4377 45.9712 11.3159C46.0894 11.1978 46.1484 10.9901 46.1484 10.6929V4.18848H47.1421ZM46.0464 2.64697C46.0464 2.48942 46.0947 2.35514 46.1914 2.24414C46.2917 2.12956 46.4367 2.07227 46.6265 2.07227C46.8198 2.07227 46.9666 2.12777 47.0669 2.23877C47.1672 2.34977 47.2173 2.48584 47.2173 2.64697C47.2173 2.80811 47.1672 2.94238 47.0669 3.0498C46.9666 3.15723 46.8198 3.21094 46.6265 3.21094C46.4331 3.21094 46.2881 3.15723 46.1914 3.0498C46.0947 2.94238 46.0464 2.80811 46.0464 2.64697ZM51.1597 10.1074C50.3719 10.1074 49.731 9.84961 49.2368 9.33398C48.7427 8.81478 48.4956 8.12191 48.4956 7.25537V7.07275C48.4956 6.49626 48.6048 5.98242 48.8232 5.53125C49.0452 5.0765 49.3532 4.72201 49.7471 4.46777C50.1445 4.20996 50.5742 4.08105 51.0361 4.08105C51.7917 4.08105 52.3789 4.32992 52.7979 4.82764C53.2168 5.32536 53.4263 6.03792 53.4263 6.96533V7.37891H49.4893C49.5036 7.95182 49.6701 8.41553 49.9888 8.77002C50.311 9.12093 50.7192 9.29639 51.2134 9.29639C51.5643 9.29639 51.8615 9.22477 52.105 9.08154C52.3485 8.93831 52.5615 8.74854 52.7441 8.51221L53.3511 8.98486C52.8641 9.73324 52.1336 10.1074 51.1597 10.1074ZM51.0361 4.89746C50.6351 4.89746 50.2985 5.04427 50.0264 5.33789C49.7542 5.62793 49.5859 6.03613 49.5215 6.5625H52.4326V6.4873C52.404 5.98242 52.2679 5.59212 52.0244 5.31641C51.7809 5.03711 51.4515 4.89746 51.0361 4.89746ZM56.2031 7.30908L55.5801 7.95898V10H54.5864V1.75H55.5801V6.73975L56.1118 6.10059L57.9219 4.18848H59.1304L56.8691 6.61621L59.3936 10H58.228L56.2031 7.30908ZM61.5044 2.78125V4.18848H62.5894V4.95654H61.5044V8.56055C61.5044 8.79329 61.5527 8.96875 61.6494 9.08691C61.7461 9.2015 61.9108 9.25879 62.1436 9.25879C62.2581 9.25879 62.4157 9.2373 62.6162 9.19434V10C62.3548 10.0716 62.1006 10.1074 61.8535 10.1074C61.4095 10.1074 61.0747 9.97314 60.8491 9.70459C60.6235 9.43604 60.5107 9.05469 60.5107 8.56055V4.95654H59.4526V4.18848H60.5107V2.78125H61.5044Z" transform="translate(0.366669 -1.60001)" fill="black"/>
</svg>
