<svg width="63" height="26" viewBox="0 0 63 26" fill="none" xmlns="http://www.w3.org/2000/svg">
<path d="M15.33 37.88C15.33 38.9067 15.19 39.8867 14.91 40.82C14.63 41.7533 14.2567 42.57 13.79 43.27C13.3233 43.97 12.7633 44.53 12.11 44.95C11.5033 45.3233 10.8267 45.51 10.08 45.51C8.77333 45.51 7.74667 45.1367 7 44.39C6.25333 43.6433 5.67 42.78 5.25 41.8C4.87667 40.82 4.62 39.84 4.48 38.86C4.38667 37.8333 4.34 37.0633 4.34 36.55C4.34 35.71 4.45667 34.7767 4.69 33.75C4.97 32.6767 5.32 31.6967 5.74 30.81C6.20667 29.9233 6.72 29.1767 7.28 28.57C7.84 27.9633 8.42333 27.66 9.03 27.66C9.17 27.66 9.38 27.7067 9.66 27.8C9.98667 27.8933 10.3133 28.0333 10.64 28.22C10.9667 28.4067 11.2467 28.64 11.48 28.92C11.76 29.2 11.9467 29.5267 12.04 29.9C12.5533 29.9467 13.0667 30.1333 13.58 30.46C14.0933 30.7867 14.3733 31.0433 14.42 31.23C14.7933 32.4433 15.0267 33.6567 15.12 34.87C15.26 36.0833 15.33 37.0867 15.33 37.88ZM12.18 36.62C12.18 35.92 12.11 35.1967 11.97 34.45C11.83 33.6567 11.55 32.8633 11.13 32.07C11.0367 32.1167 10.92 32.14 10.78 32.14C10.5933 32.14 10.43 32.1167 10.29 32.07C10.1967 32.0233 10.1033 32 10.01 32C9.45 32 9.00667 32.1633 8.68 32.49C8.35333 32.77 8.09667 33.1667 7.91 33.68C7.77 34.1467 7.67667 34.66 7.63 35.22C7.58333 35.78 7.56 36.3167 7.56 36.83C7.56 37.3433 7.58333 37.9267 7.63 38.58C7.67667 39.1867 7.77 39.77 7.91 40.33C8.09667 40.89 8.33 41.38 8.61 41.8C8.89 42.1733 9.26333 42.36 9.73 42.36C10.1967 42.36 10.5933 42.1267 10.92 41.66C11.2467 41.1467 11.5033 40.5633 11.69 39.91C11.8767 39.2567 11.9933 38.6267 12.04 38.02C12.1333 37.3667 12.18 36.9 12.18 36.62ZM43.4191 44.39C43.4191 44.67 43.3258 44.95 43.1391 45.23C42.9525 45.51 42.7191 45.7667 42.4391 46C42.2058 46.2333 41.9258 46.4433 41.5991 46.63C41.3191 46.77 41.0625 46.84 40.8291 46.84C40.0358 46.84 39.0091 46.6767 37.7491 46.35C36.5358 45.9767 35.5558 45.4167 34.8091 44.67C34.0158 43.8767 33.3158 42.9433 32.7091 41.87C32.1025 40.75 31.4258 39.1167 30.6791 36.97C30.1658 39.0233 29.5591 41.0533 28.8591 43.06C28.2058 45.0667 27.1325 46.91 25.6391 48.59C25.5458 48.6833 25.4058 48.73 25.2191 48.73C24.8925 48.73 24.5425 48.5667 24.1691 48.24C23.7958 47.9133 23.6091 47.5867 23.6091 47.26C23.6091 46.9333 23.5625 46.1867 23.4691 45.02C23.4225 43.8067 23.3525 42.4767 23.2591 41.03C23.1658 39.5367 23.0725 38.0433 22.9791 36.55C22.9325 35.01 22.9091 33.75 22.9091 32.77C22.9091 32.3033 22.9325 31.6967 22.9791 30.95C23.0258 30.1567 23.1658 29.48 23.3991 28.92C23.4458 28.8267 23.6091 28.64 23.8891 28.36C24.2158 28.08 24.5658 27.94 24.9391 27.94C25.2658 27.94 25.4525 28.15 25.4991 28.57C25.5458 28.99 25.5691 29.4567 25.5691 29.97V41.03C25.5691 41.2633 25.5925 41.59 25.6391 42.01C25.7325 42.43 25.8491 42.7333 25.9891 42.92C26.5025 41.8 26.9691 40.4933 27.3891 39C27.8558 37.46 28.2991 36.0133 28.7191 34.66C29.1391 33.26 29.5591 32.0933 29.9791 31.16C30.3991 30.18 30.8191 29.69 31.2391 29.69C31.7058 29.69 32.0791 29.7833 32.3591 29.97C32.6391 30.1567 32.8725 30.53 33.0591 31.09C33.2925 32.4433 33.4791 33.6567 33.6191 34.73C33.7591 35.7567 33.9225 36.69 34.1091 37.53C34.3425 38.37 34.6458 39.1633 35.0191 39.91C35.4391 40.61 35.9991 41.2633 36.6991 41.87C37.3525 42.4767 38.0758 42.92 38.8691 43.2C39.7091 43.48 40.4325 43.62 41.0391 43.62C41.3191 43.62 41.6225 43.5733 41.9491 43.48C42.2758 43.34 42.5091 43.27 42.6491 43.27C42.8358 43.27 42.9991 43.4333 43.1391 43.76C43.3258 44.0867 43.4191 44.2967 43.4191 44.39ZM66.4885 45.65C66.5352 45.7433 66.5585 45.8833 66.5585 46.07C66.5585 46.35 66.3485 46.77 65.9285 47.33C65.7885 47.5167 65.4852 47.82 65.0185 48.24C64.5518 48.66 63.9218 49.08 63.1285 49.5C62.3352 49.92 61.3552 50.2933 60.1885 50.62C59.0685 50.9467 57.7385 51.11 56.1985 51.11C55.1252 51.11 54.0752 50.8767 53.0485 50.41C52.0218 49.8967 51.1118 49.1733 50.3185 48.24C49.5252 47.26 48.8718 46.07 48.3585 44.67C47.8452 43.2233 47.5885 41.5433 47.5885 39.63C47.5885 37.81 47.8218 36.1067 48.2885 34.52C48.7552 32.9333 49.3385 31.5333 50.0385 30.32C50.7852 29.1067 51.6018 28.15 52.4885 27.45C53.3752 26.75 54.2385 26.4 55.0785 26.4C55.8252 26.4 56.5718 26.5633 57.3185 26.89C58.1118 27.17 58.8118 27.5433 59.4185 28.01C60.0718 28.4767 60.5852 29.0133 60.9585 29.62C61.3318 30.18 61.5185 30.7633 61.5185 31.37C61.5185 32.07 61.1918 32.7933 60.5385 33.54C59.9318 34.2867 59.1852 34.9867 58.2985 35.64C57.4118 36.2467 56.5252 36.76 55.6385 37.18C54.7518 37.5533 54.0518 37.74 53.5385 37.74C53.2585 37.74 53.0018 37.6233 52.7685 37.39C52.5818 37.11 52.4885 36.7833 52.4885 36.41C52.4885 35.7567 52.7685 35.2433 53.3285 34.87C53.9352 34.4967 54.5885 34.17 55.2885 33.89C55.9885 33.5633 56.6185 33.19 57.1785 32.77C57.7852 32.35 58.0885 31.7667 58.0885 31.02C58.0885 30.9267 57.9718 30.6933 57.7385 30.32C57.5052 29.9467 56.8752 29.76 55.8485 29.76C55.3818 29.76 54.8452 30.04 54.2385 30.6C53.6318 31.1133 53.0485 31.8367 52.4885 32.77C51.9285 33.6567 51.4618 34.73 51.0885 35.99C50.7152 37.2033 50.5285 38.5333 50.5285 39.98C50.5285 41.1933 50.7385 42.29 51.1585 43.27C51.6252 44.25 52.2085 45.09 52.9085 45.79C53.6085 46.4433 54.4252 46.9567 55.3585 47.33C56.2918 47.7033 57.2485 47.89 58.2285 47.89C58.9285 47.89 59.6752 47.75 60.4685 47.47C61.3085 47.1433 62.0785 46.8167 62.7785 46.49C63.5252 46.1167 64.1552 45.79 64.6685 45.51C65.2285 45.1833 65.5785 45.02 65.7185 45.02C65.8585 45.02 65.9985 45.09 66.1385 45.23C66.3252 45.37 66.4418 45.51 66.4885 45.65Z" transform="translate(-4 -26)" fill="#FFFCFC"/>
</svg>
